<svg xmlns="http://www.w3.org/2000/svg" viewBox="0 0 1000 1000" width="24" height="24" aria-hidden="true" focusable="false">
	<path fill="#1E1E1E" d="M995.5,431.7c-76.3,33.4-175.7,105.4-234.7,155.5l-1.7,1.4l-1.9,1.2c-18.3,11.4-45.5,26.5-71.1,26.5
    c-11.7,0-22.1-3.1-31-9.3c-34.1-23.7-27.7-76.2-16.4-134.6c-7.9,6.4-17.6,15-29.7,26.2c-30.4,28.4-63.9,63.3-90.7,91.4l-0.6,0.6
    c-10,10.5-28.7,30-50.4,30c-6.4,0-12.5-1.7-18.2-5.1c-30.8-18.5-21.5-59.5,14.3-170.2c-11.7,13.6-24.7,29.3-39,47
    c-48,59.5-110.3,141.3-190.3,250c-21.6,29.3-39.9,51.8-62,51.8c-5.9,0-11.6-1.7-17.1-4.9c-26.6-15.9-15.9-52-8.1-78.4
    c7.4-25,20.1-60.4,37.7-105c29.2-74.3,72.7-176.1,129-302.6c6.1-13.8,12.3-27.6,18.5-41.3c-40.4-31-64.5-73.3-78-122.5
    c-6.3-23-9.6-45.9-10.4-68.6C97.8,158.2-0.1,318-0.1,500.2c0,275.8,224.4,500.2,500.2,500.2s500.2-224.4,500.2-500.2
    C1000.2,476.9,998.6,454.1,995.5,431.7z"/>
	<path fill="#1E1E1E" d="M518,0.4l-67.3,2.1c-41.4,4.1-81.3,13.2-119.1,26.8c14.3,17.4,27.7,35.2,38.2,54.8c6.9,12.8,12.5,26.3,16.3,41
    c1,4,1.9,8,2.6,12c4.4,24.2,2.8,48-5.1,71.8c-1.3,4.1-2.6,8.2-3.6,12.3c-0.6,2.6-3,6.2,0.7,7.8c3,1.3,5.5-1.6,7.3-3.9
    c2.7-3.3,5.4-6.7,7.7-10.3c14.5-23.3,31.2-42.7,50.1-58.3c18.6-15.3,39.3-27,62.1-35.1c21.3-7.6,44.4-12,69.3-13.4
    c22.4-1.2,44.9-1.7,67.3-3c20.5-1.2,40.4-6,59.8-12.9c2.7-1,5.7-3.4,8.1-0.5c2,2.4-0.4,5-1.4,7.3c-10.3,22.3-26.4,40.3-43.5,57.2
    c-43.1,42.6-92,76.9-148.3,99.9c-41.7,17-84.7,26.9-129.5,24.3c-3.6,8-7.2,16-10.8,24.1c-73.4,164-116.7,267.9-142.2,333.4
    C300,553,350.5,487.7,390.3,439.1c29-35.4,51.7-61.1,69.3-78.5c16.4-16.2,33.9-31.9,53.3-31.9c5.5,0,10.8,1.3,15.7,3.8
    c29.4,15,17.8,51.4,12.8,67c-4.2,13.2-8.8,27.3-13.2,40.8c-7.7,23.5-17.2,52.7-24.8,78.6c86.2-88.8,129.9-126.4,162.6-126.4
    c6.4,0,12.5,1.5,18.1,4.4c12.8,6.7,26.5,22.3,19.2,58.7l-1.4,6.9c-5.1,25.3-10.4,51.4-11.9,72.1c-0.8,10.8-0.3,17.3,0.3,21
    c5.3-1.2,15.6-4.9,33.1-15.7c11.8-9.9,67.1-55.6,134.1-99.7c48-31.6,89.7-54.4,125.6-68.7C927.9,163.4,741.4,8.3,518,0.4z"/>
</svg>
